<?xml version="1.0" encoding="utf-8"?>
<!-- Generator: Adobe Illustrator 18.0.0, SVG Export Plug-In . SVG Version: 6.00 Build 0)  -->
<!DOCTYPE svg PUBLIC "-//W3C//DTD SVG 1.1//EN" "http://www.w3.org/Graphics/SVG/1.1/DTD/svg11.dtd">
<svg version="1.1" id="Layer_1" xmlns="http://www.w3.org/2000/svg" xmlns:xlink="http://www.w3.org/1999/xlink" x="0px" y="0px"
	 viewBox="0 0 300 144.5" enable-background="new 0 0 300 144.5" xml:space="preserve">
<g>
	<path d="M198.6,76c2-0.7,3.9-1.3,5.7-2.1c2.3-1,4.6-2.3,6.2-4.4c1.6-2.1,1.5-4-0.1-6.2c-2.4-3.2-5.7-4-9.3-4.3c-2-0.2-4-0.2-6-0.4
		c-0.7-0.1-1.4-0.3-2-0.6c-1-0.4-1.5-1.3-1.4-2.4c0.1-1.1,0.7-1.7,1.7-2c4.2-1.1,7.8-3.4,11.6-5.4c2.5-1.3,4.6-3.1,6.1-5.5
		c1-1.5,1-2.2-0.6-3.1c-1.4-0.8-2.9-1.7-4.5-1.8c-3.5-0.3-7.1-0.3-10.6-0.2c-2.2,0.1-3.1,1.4-3.5,3.6c-1.8,10-1.2,20.1-0.8,30.2
		c0.1,2.8,0.7,5.6,1,8.5c0.2,2-0.2,2.9-1.2,3c-1.5,0.1-1.9-1.2-2.1-2.3c-0.6-3.7-1.2-7.5-1.3-11.2c-0.2-7.4-0.1-14.8-0.1-22.2
		c0-2-0.1-4.1-0.2-6.2c-1.2,0.2-2.1,0.7-2.9,0.5c-0.9-0.2-1.9-0.9-2.2-1.7c-0.2-0.6,0.4-2,0.9-2.3c2.6-1.2,5-2.9,7.9-3.3
		c0.8-0.1,1.7-0.2,2.5-0.3c5.6-1,11.2-0.8,16.6,1.2c0.9,0.3,1.7,0.8,2.4,1.3c3.5,2.3,3.9,7.1,0.8,9.9c-3.6,3.2-7.2,6.4-12.2,8.7
		c1.2,0.3,1.8,0.6,2.5,0.7c4.4,1.2,8.2,3.2,10.8,7.1c2,3,2.1,5.9-0.2,8.7c-2.7,3.2-5.8,6-9.9,7c-1.2,0.3-2.7,0.1-4,0
		C198.9,78.2,198.5,77.3,198.6,76z"/>
	<path d="M57,5.5c-0.4,0.9-1,1.8-1.2,2.8c-1.2,5.1-1.9,10.2-2.3,15.4c-0.3,4.1-1.1,8.2-1.4,12.3c-0.4,5-0.6,10.1-0.9,15.5
		c1.1-0.4,1.8-0.5,2.3-1c1.1-1,2.1-0.7,3.1-0.1c1.2,0.7,1.3,1.6,0.1,2.3c-1,0.6-2.2,1-3.3,1.4c-0.6,0.2-1.2,0.3-1.8,0.5
		c0,2.7,0,5.2,0,7.8c0,6,0.1,12-0.2,17.9c-0.1,1.6-1,3.2-1.7,4.7c-0.2,0.4-1.1,0.4-1.7,0.6c-0.2-0.6-0.6-1.2-0.4-1.7
		c1.2-3.2,0.9-6.6,0.9-9.9c-0.1-6-0.3-12-0.5-17.9c0-0.3-0.1-0.7-0.2-1.3c-4.2,0.4-8.3,0.8-12.5,1.2C35.1,57,35,57.7,35,58.5
		c-0.1,3.1-0.1,6.3-0.2,9.4c0,1.3,0.1,2.5,1,3.6c0.9,1.2,0.1,3.2-1.3,3.7c-1,0.3-1.6-0.2-1.8-1c-0.5-1.8-1.2-3.7-1.2-5.6
		c-0.1-4.4,0.1-8.8,0.2-13.2c0.1-2.1,0.6-2.4,2.8-2.1c0.7,0.1,1.4-0.2,2.1-0.2c2.9-0.3,5.8-0.6,8.7-0.9c0.8-0.1,1.7-0.2,2.6-0.4
		c0.2-2.2,0.3-4.2,0.5-6.3c0.6-7.7,1.2-15.5,1.8-23.2c0.5-6.4,1.1-12.7,2.9-19c1.3-4.5,4.3-4,6.5-1.5c0.5,0.6,1.1,1.4,1.3,2.2
		c0.4,2.2,0.7,4.5,0.9,6.8c0.1,1.3-0.8,2.2-1.9,2.2c-1.3-0.1-1.5-1.1-1.6-2.1c-0.2-1.7-0.4-3.5-0.7-5.2C57.5,5.6,57.2,5.6,57,5.5z"
		/>
	<path d="M71.1,60.1c0-0.6,0-1.2,0-1.8c-0.4-10.4,0.1-20.8,0.9-31.2c0.5-5.7,0.4-11.5,1.6-17.2c0.3-1.2,0.5-2.3,1.8-3.4
		c0.3,1.6,0.5,2.9,0.8,4.2c0.3,1.3,0.1,2.9,1.9,3.7c1.9-1,2-1.2,1.7-3c-0.2-1.5-0.4-3-0.7-4.4c-0.3-1.7-0.9-3.1-2.3-4.2
		c-3.1-2.5-5.3-1.9-6,2c-0.8,4.3-1.5,8.6-1.7,12.9c-0.6,13.9-0.9,27.9-1.4,41.9c0,0.2-0.1,0.4-0.2,0.6c-0.7,0-1.3,0-1.9,0
		c-1,0-1.7,0.2-1.8,1.3c0,1.1,0.7,1.5,1.6,1.6c0.8,0.1,1.5,0,2.4,0c0.6,7.2-0.2,14.4,2.8,21.1c1.6-0.5,1.7-1.6,1.6-2.8
		c-0.1-3.1-0.3-6.2-0.5-9.4c-0.1-1.4-0.2-2.7-0.2-4.1c0-1.6,0-3.2,0-4.8c2.6-0.2,5.1-0.3,7.6-0.5c0.3-0.9,0.5-1.8,0.5-2.7
		C76.8,60.1,74,60.1,71.1,60.1z"/>
	<path d="M21.6,35c-0.2-1.7-0.5-3.3-0.7-4.8c-0.2-1.5-0.3-3.1-0.3-4.7c0-0.9,0.4-1.7,1.5-1.7c1.3-0.1,2.2,0.4,2.4,1.6
		c0.3,1.7,0.4,3.4,0.5,5.1c0.1,1.4,0,2.8,0,4.4c2.1,0.2,3.9,0.4,5.6,0.5c3.1,0.1,6.1-0.1,9.2,0c1.1,0,2.3,0.3,3.3,0.6
		c0.5,0.2,0.8,0.9,1.2,1.3c-0.1,0.2-0.2,0.4-0.3,0.5c-1.9,0.2-3.8,0.4-5.7,0.5c-3.7,0.1-7.4,0.1-11.1,0.2c-0.6,0-1.2,0.2-2,0.3
		c-0.2,2.7-0.5,5.2-0.5,7.8c0,9.3,0,18.5,0.1,27.8c0,4.4,0.2,8.8,0.2,13.2c0,0.9-0.1,1.9-0.3,2.8c-0.2,0.8-0.6,1.5-1.6,1.3
		c-0.9-0.2-0.9-0.9-0.9-1.7c-0.2-11.2-0.4-22.4-0.5-33.6c-0.1-4.9,0-9.8,0-14.8c0-0.8-0.1-1.7-0.2-2.7c-0.9-0.1-1.7-0.3-2.4-0.3
		c-2.6,0-5.1,0.2-7.7,0.2c-2.9,0.1-5.8,0.2-8.8,0.2c-1.9,0-2.8-0.8-2.8-2.2c0.1-1.4,1.1-2.2,2.8-2.2c5.3,0.1,10.5,0.2,15.8,0.3
		C19.5,35.3,20.4,35.1,21.6,35z"/>
	<path d="M236.6,61.1c-1.7,1.5-3.3,3-4.9,4.3c-1.7,1.4-3.4,2.6-5.7,2.5c-2.7,0-4.6-1.4-4.9-4.1c-0.2-1.9,0.2-3.8,0.4-5.7
		c0-0.3,0.3-0.6,0.5-0.9c0.5-0.6,1-1.3,1.9-0.9c1,0.4,1.3,1.3,1,2.3c-0.2,1-0.6,1.9-0.6,2.9c-0.1,2.8,1.4,3.9,3.9,2.6
		c3.4-1.8,6.3-4.1,8.2-7.6c0.2-0.4,0.4-0.8,0.6-1.1c0.5-0.9,1.2-1.5,2.2-1.1c1,0.3,1.5,1.3,1.2,2.2c-1.2,4.9-0.7,9.9-0.9,14.9
		c-0.4,6.1-0.5,12.2-0.7,18.4c-0.1,4.1-0.4,8.3-0.4,12.4c0,4.8,0.6,9.5,2.9,13.8c0.1,0.2,0.2,0.5,0.2,0.8c0.1,0.3,0.1,0.5,0.1,0.9
		c-1.3,0.6-1.8-0.2-2.5-1.1c-2.5-3.4-3.3-7.4-3.3-11.5c0.1-10.2,0.4-20.4,0.6-30.5C236.7,70.3,236.6,65.8,236.6,61.1z"/>
	<path d="M94.8,67c-1,0.9-1.9,1.8-2.9,2.7c-1.1,1.1-2.3,1.9-3.8,2.1c-2.1,0.2-3.7-0.7-4.6-2.7c-1.9-4.6,1.1-10.9,5.9-12.2
		c1.2-0.3,2.5-0.5,3.8-0.5c3.5,0.1,5.9,2.5,5.8,6c0,1.9-0.2,3.8-0.5,5.7c-0.5,4.4-1.6,8.7,0.6,12.9c-2.1,0.9-3.4,0.5-3.8-1.6
		c-0.4-2.4-0.3-4.9-0.3-7.4c0-1.7,0.2-3.3,0.3-5C95.1,67.2,94.9,67.1,94.8,67z M94.2,60.7c-1.2,0-2.2-0.1-3,0
		c-2.5,0.4-4.8,2.6-4.6,4.8c0,0.7,0.5,1.8,1.1,2.1c0.6,0.3,1.8,0.2,2.3-0.2c1.4-1.2,2.8-2.6,4-4.1C94.3,62.7,94.1,61.7,94.2,60.7z"
		/>
	<path d="M140.4,73.5c0.7,4.3,4.2,6.7,8.4,5.7c0.6-0.1,1.3-0.2,2,0c-1.1,1.7-2.8,2.3-4.6,2.2c-5.4-0.4-10.4-3.8-9.3-11.1
		c0.8-5.5,3.5-10,6.9-14.2c0.8-1,2.2-1.6,3.4-2.1c1.8-0.7,3.2,0.1,3.2,2.1c0.1,1.4-0.2,2.9-0.8,4.1c-2,3.7-4.2,7.3-6.4,10.8
		C142.6,72,141.4,72.6,140.4,73.5z M146.9,58.7c-2.9,1.8-5,5.4-4.3,7.5C144.3,63.7,146.1,61.5,146.9,58.7z"/>
	<path d="M276.8,64.6c-0.5,1.3-0.9,2.7-1.6,3.9c-2.1,3.2-5.2,5-8.9,5.7c-0.8,0.1-1.6,0.1-2.3,0c-2.1-0.4-4.1-1.5-4.7-3.5
		c-0.6-2.1,0-4.2,1.7-5.9c2.4-2.4,5.1-4.3,8.5-5.1c0.5-0.1,1-0.3,1.5-0.3C274,58.9,276.7,61.3,276.8,64.6z M273.4,64.2
		c-0.2-0.2-0.3-0.4-0.4-0.4c-2.5-0.7-7.9,1.5-9.3,3.7c-0.7,1.2-0.4,2,1,2.3C268.3,70.6,272.1,68.2,273.4,64.2z"/>
	<path d="M108.2,74.2c-2.5,0-3.7-0.8-3.8-2.8c-0.1-1.8,0.1-3.7,0.2-5.5c0.1-1.2,1-1.6,1.9-1.6c1.2-0.1,2.1-0.6,3-1.4
		c2.1-1.9,6.8-2.3,9.3-0.9c1.5,0.8,2.3,2.2,2.5,3.8c0.3,1.5,0.2,3.1,0.1,4.7c0,0.8-0.4,1.7-1.3,1.6c-0.4-0.1-0.9-0.9-1.1-1.5
		c-0.3-0.6-0.3-1.4-0.5-2.1c-0.4-1.4-0.8-2.8-2.6-3c-1.8-0.2-3.7-0.2-4.8,1.6c-0.7,1.1-1.2,2.4-1.7,3.6
		C108.9,71.7,108.6,73,108.2,74.2z"/>
	<path d="M285.6,74.1c-2.4,0.2-3.7-0.7-3.8-2.8c-0.1-1.8,0.1-3.7,0.2-5.5c0-1,0.7-1.4,1.5-1.5c1.5-0.1,2.5-1,3.7-1.8
		c2.7-1.8,5.8-2,8.7-0.6c0.9,0.4,1.7,1.5,2.2,2.4c1,2,1,4.1,0.5,6.2c-0.1,0.6-0.7,1-1.4,1.9c-0.5-0.9-0.8-1.4-1-2
		c-0.2-0.7-0.3-1.4-0.4-2.1c-0.4-1.5-0.8-2.9-2.7-3.2c-1.9-0.2-3.8-0.1-4.9,1.8c-0.8,1.4-1.3,3-1.9,4.5
		C286.1,72.5,285.9,73.4,285.6,74.1z"/>
	<path d="M249.5,66.2c1-2.2,1.8-4,2.7-5.8c1.1-2,3-3,5-3.8c0.6-0.3,1.6-0.1,2.2,0.1c1.2,0.5,1.3,1.8,0.3,2.6c-0.8,0.6-1.7,1-2.6,1.4
		c-2.4,0.9-3.9,2.6-4.5,5c-0.6,2.7-1.1,5.4-1.6,8.1c-0.1,0.6,0,1.2-0.3,1.6c-0.3,0.5-1,0.9-1.5,0.9c-0.4,0-1.1-0.7-1.2-1.1
		c-0.4-1.7-0.8-3.5-0.8-5.3c0-4.9,0.2-9.8,0.3-14.7c0-1.1,0.1-2.5,1.5-2.4c1.4,0.1,1.3,1.6,1.2,2.6c-0.1,2.7-0.4,5.4-0.6,8.1
		C249.4,64.3,249.5,65,249.5,66.2z"/>
	<path d="M126.7,62.8c0-2,0-4,0-6c0-0.8,0.2-1.7,0.5-2.4c0.2-0.4,0.9-0.8,1.3-0.8c0.5,0.1,1.2,0.6,1.4,1.1c0.3,0.8,0.3,1.8,0.3,2.7
		c-0.1,3.7-0.2,7.4-0.3,11.1c0,1.2,0.1,2.3,1,3.3c1,1.2-0.2,3.8-1.7,3.7c-0.5,0-1.3-0.7-1.5-1.2c-0.5-1.8-1-3.7-1.2-5.6
		c-0.2-2,0-4,0-6C126.5,62.8,126.6,62.8,126.7,62.8z"/>
	<path d="M34.3,47.7c-1.1-1.9-1.1-3.7-0.1-4.6c1-0.8,1.9-0.3,2.7,0.2c1.4,0.9,2.1,2.1,1.6,2.9C37.6,48,35.9,47.7,34.3,47.7z"/>
	<path d="M129.4,48.5c-0.3-0.4-0.5-0.7-0.6-0.9c-0.6-1.6-0.3-3.3,0.7-3.9c1-0.5,3.3,0.5,4,1.8c0.6,1,0.3,2.3-0.9,2.6
		C131.6,48.4,130.4,48.4,129.4,48.5z"/>
</g>
<rect x="121.3" y="131" width="57.4" height="2"/>
<g>
	<path d="M93.6,107.9v3.1H92v-8.7h2.8c0.6,0,1.1,0.1,1.5,0.2c0.4,0.1,0.8,0.3,1,0.6c0.3,0.2,0.5,0.5,0.6,0.9
		c0.1,0.3,0.2,0.7,0.2,1.1c0,0.4-0.1,0.8-0.2,1.2c-0.1,0.3-0.4,0.7-0.6,0.9c-0.3,0.3-0.6,0.4-1.1,0.6c-0.4,0.1-0.9,0.2-1.5,0.2H93.6
		z M93.6,106.7h1.2c0.3,0,0.6,0,0.8-0.1c0.2-0.1,0.4-0.2,0.5-0.3s0.3-0.3,0.3-0.5c0.1-0.2,0.1-0.4,0.1-0.7c0-0.2,0-0.4-0.1-0.6
		c-0.1-0.2-0.2-0.3-0.3-0.5c-0.1-0.1-0.3-0.2-0.5-0.3c-0.2-0.1-0.5-0.1-0.8-0.1h-1.2V106.7z"/>
	<path d="M109.2,111h-1.6v-3.8h-4.1v3.8h-1.6v-8.7h1.6v3.7h4.1v-3.7h1.6V111z"/>
	<path d="M121.6,106.7c0,0.6-0.1,1.2-0.3,1.8s-0.5,1-0.9,1.4c-0.4,0.4-0.8,0.7-1.4,0.9c-0.5,0.2-1.1,0.3-1.8,0.3
		c-0.7,0-1.3-0.1-1.8-0.3c-0.5-0.2-1-0.5-1.4-0.9c-0.4-0.4-0.7-0.9-0.9-1.4c-0.2-0.5-0.3-1.1-0.3-1.8s0.1-1.2,0.3-1.8
		c0.2-0.5,0.5-1,0.9-1.4c0.4-0.4,0.8-0.7,1.4-0.9c0.5-0.2,1.1-0.3,1.8-0.3c0.7,0,1.3,0.1,1.8,0.3c0.5,0.2,1,0.5,1.4,0.9
		c0.4,0.4,0.7,0.9,0.9,1.4C121.5,105.4,121.6,106,121.6,106.7z M120,106.7c0-0.5-0.1-0.9-0.2-1.3s-0.3-0.7-0.5-1
		c-0.2-0.3-0.5-0.5-0.9-0.6c-0.3-0.1-0.7-0.2-1.1-0.2c-0.4,0-0.8,0.1-1.1,0.2c-0.3,0.1-0.6,0.3-0.9,0.6s-0.4,0.6-0.5,1
		c-0.1,0.4-0.2,0.8-0.2,1.3c0,0.5,0.1,0.9,0.2,1.3c0.1,0.4,0.3,0.7,0.5,1c0.2,0.3,0.5,0.5,0.9,0.6c0.3,0.1,0.7,0.2,1.1,0.2
		c0.4,0,0.8-0.1,1.1-0.2c0.3-0.1,0.6-0.3,0.9-0.6c0.2-0.3,0.4-0.6,0.5-1S120,107.1,120,106.7z"/>
	<path d="M131,102.3v1.3h-2.6v7.3h-1.6v-7.3h-2.6v-1.3H131z"/>
	<path d="M142.2,106.7c0,0.6-0.1,1.2-0.3,1.8s-0.5,1-0.9,1.4c-0.4,0.4-0.8,0.7-1.4,0.9c-0.5,0.2-1.1,0.3-1.8,0.3
		c-0.7,0-1.3-0.1-1.8-0.3c-0.5-0.2-1-0.5-1.4-0.9c-0.4-0.4-0.7-0.9-0.9-1.4c-0.2-0.5-0.3-1.1-0.3-1.8s0.1-1.2,0.3-1.8
		c0.2-0.5,0.5-1,0.9-1.4c0.4-0.4,0.8-0.7,1.4-0.9c0.5-0.2,1.1-0.3,1.8-0.3c0.7,0,1.3,0.1,1.8,0.3c0.5,0.2,1,0.5,1.4,0.9
		c0.4,0.4,0.7,0.9,0.9,1.4C142.1,105.4,142.2,106,142.2,106.7z M140.6,106.7c0-0.5-0.1-0.9-0.2-1.3s-0.3-0.7-0.5-1
		c-0.2-0.3-0.5-0.5-0.9-0.6c-0.3-0.1-0.7-0.2-1.1-0.2c-0.4,0-0.8,0.1-1.1,0.2c-0.3,0.1-0.6,0.3-0.9,0.6s-0.4,0.6-0.5,1
		c-0.1,0.4-0.2,0.8-0.2,1.3c0,0.5,0.1,0.9,0.2,1.3c0.1,0.4,0.3,0.7,0.5,1c0.2,0.3,0.5,0.5,0.9,0.6c0.3,0.1,0.7,0.2,1.1,0.2
		c0.4,0,0.8-0.1,1.1-0.2c0.3-0.1,0.6-0.3,0.9-0.6c0.2-0.3,0.4-0.6,0.5-1S140.6,107.1,140.6,106.7z"/>
	<path d="M149.9,109.8c0.4,0,0.7,0,1-0.1c0.3-0.1,0.5-0.2,0.8-0.3v-1.6h-1.1c-0.1,0-0.2,0-0.2-0.1c-0.1-0.1-0.1-0.1-0.1-0.2v-0.9
		h2.9v3.5c-0.2,0.2-0.4,0.3-0.7,0.4c-0.2,0.1-0.5,0.2-0.8,0.3s-0.6,0.1-0.9,0.2s-0.6,0.1-1,0.1c-0.6,0-1.2-0.1-1.7-0.3
		c-0.5-0.2-1-0.5-1.4-0.9c-0.4-0.4-0.7-0.9-0.9-1.4c-0.2-0.5-0.3-1.1-0.3-1.8c0-0.7,0.1-1.2,0.3-1.8s0.5-1,0.9-1.4
		c0.4-0.4,0.9-0.7,1.4-0.9c0.6-0.2,1.2-0.3,1.9-0.3c0.7,0,1.3,0.1,1.8,0.3s1,0.5,1.3,0.8l-0.5,0.7c-0.1,0.1-0.2,0.2-0.4,0.2
		c-0.1,0-0.2,0-0.3-0.1c-0.1-0.1-0.3-0.2-0.4-0.2c-0.1-0.1-0.3-0.1-0.4-0.2c-0.2-0.1-0.3-0.1-0.5-0.1c-0.2,0-0.4-0.1-0.7-0.1
		c-0.4,0-0.8,0.1-1.2,0.2c-0.3,0.1-0.6,0.3-0.9,0.6c-0.2,0.3-0.4,0.6-0.6,1c-0.1,0.4-0.2,0.8-0.2,1.3c0,0.5,0.1,0.9,0.2,1.3
		s0.3,0.7,0.6,1c0.3,0.3,0.6,0.5,0.9,0.6C149.1,109.7,149.5,109.8,149.9,109.8z"/>
	<path d="M158.7,107.6v3.4H157v-8.7h2.6c0.6,0,1.1,0.1,1.5,0.2c0.4,0.1,0.8,0.3,1,0.5c0.3,0.2,0.5,0.5,0.6,0.8
		c0.1,0.3,0.2,0.6,0.2,1c0,0.3,0,0.6-0.1,0.8c-0.1,0.3-0.2,0.5-0.4,0.7c-0.2,0.2-0.4,0.4-0.6,0.6c-0.2,0.2-0.5,0.3-0.8,0.4
		c0.2,0.1,0.4,0.3,0.5,0.5l2.2,3.2h-1.5c-0.1,0-0.3,0-0.4-0.1s-0.2-0.1-0.2-0.2l-1.8-2.8c-0.1-0.1-0.1-0.2-0.2-0.2
		c-0.1,0-0.2-0.1-0.4-0.1H158.7z M158.7,106.5h1c0.3,0,0.6,0,0.8-0.1c0.2-0.1,0.4-0.2,0.6-0.3c0.1-0.1,0.3-0.3,0.3-0.5
		c0.1-0.2,0.1-0.4,0.1-0.6c0-0.4-0.1-0.8-0.4-1c-0.3-0.2-0.7-0.4-1.3-0.4h-1V106.5z"/>
	<path d="M174.9,111h-1.2c-0.1,0-0.3,0-0.3-0.1c-0.1-0.1-0.2-0.2-0.2-0.3l-0.6-1.8h-3.6l-0.6,1.8c0,0.1-0.1,0.2-0.2,0.3
		c-0.1,0.1-0.2,0.1-0.3,0.1h-1.3l3.4-8.7h1.7L174.9,111z M169.3,107.7h2.8l-1.1-2.9c0-0.1-0.1-0.3-0.2-0.5s-0.1-0.4-0.2-0.6
		c-0.1,0.2-0.1,0.4-0.2,0.6c-0.1,0.2-0.1,0.3-0.2,0.5L169.3,107.7z"/>
	<path d="M179.8,107.9v3.1h-1.6v-8.7h2.8c0.6,0,1.1,0.1,1.5,0.2c0.4,0.1,0.8,0.3,1,0.6c0.3,0.2,0.5,0.5,0.6,0.9
		c0.1,0.3,0.2,0.7,0.2,1.1c0,0.4-0.1,0.8-0.2,1.2c-0.1,0.3-0.4,0.7-0.6,0.9c-0.3,0.3-0.6,0.4-1.1,0.6c-0.4,0.1-0.9,0.2-1.5,0.2
		H179.8z M179.8,106.7h1.2c0.3,0,0.6,0,0.8-0.1c0.2-0.1,0.4-0.2,0.5-0.3s0.3-0.3,0.3-0.5c0.1-0.2,0.1-0.4,0.1-0.7
		c0-0.2,0-0.4-0.1-0.6c-0.1-0.2-0.2-0.3-0.3-0.5c-0.1-0.1-0.3-0.2-0.5-0.3c-0.2-0.1-0.5-0.1-0.8-0.1h-1.2V106.7z"/>
	<path d="M195.4,111h-1.6v-3.8h-4.1v3.8h-1.6v-8.7h1.6v3.7h4.1v-3.7h1.6V111z"/>
	<path d="M203.4,107.6v3.4h-1.6v-3.4l-3.2-5.3h1.4c0.1,0,0.3,0,0.3,0.1c0.1,0.1,0.2,0.2,0.2,0.3l1.6,2.9c0.1,0.2,0.2,0.3,0.2,0.5
		c0.1,0.2,0.1,0.3,0.2,0.5c0.1-0.2,0.1-0.3,0.2-0.5c0.1-0.2,0.1-0.3,0.2-0.5l1.6-2.9c0-0.1,0.1-0.2,0.2-0.2c0.1-0.1,0.2-0.1,0.3-0.1
		h1.4L203.4,107.6z"/>
</g>
</svg>
